PathFileType	4	(X/Y/Z)	 New Session 108.trc
DataRate	CameraRate	NumFrames	NumMarkers	Units	OrigDataRate	OrigDataStartFrame	OrigNumFrames
100	100	19	14	m	100	709	945
Frame#	Time	C7			T8			IJ			PX			AA			AC			AI			TS			SC			GH			LE			ME			US			RS			
		X1	Y1	Z1	X2	Y2	Z2	X3	Y3	Z3	X4	Y4	Z4	X5	Y5	Z5	X6	Y6	Z6	X7	Y7	Z7	X8	Y8	Z8	X9	Y9	Z9	X10	Y10	Z10	X11	Y11	Z11	X12	Y12	Z12	X13	Y13	Z13	X14	Y14	Z14	
709	7.0900	0.024526	0.102653	0.158878	0.012730	-0.112689	0.235914	0.007379	-0.002758	0.001800	0.004084	-0.144286	-0.063637	0.225632	-0.010737	0.148108	0.172444	0.034093	0.081435	0.104914	0.018454	0.207848	0.097352	-0.096899	0.240638	0.032504	0.004456	0.007187	0.234019	0.004923	0.106458	0.310359	-0.217670	-0.064742	0.221403	-0.269766	-0.071511	0.147133	-0.011038	-0.104472	0.209830	0.006979	-0.061410	
710	7.1000	0.024510	0.102633	0.158929	0.012687	-0.112714	0.235928	0.007376	-0.002785	0.001879	0.004072	-0.144285	-0.063589	0.225644	-0.010707	0.148155	0.172458	0.034131	0.081482	0.104874	0.018410	0.207893	0.097336	-0.096938	0.240674	0.032519	0.004439	0.007238	0.234036	0.004976	0.106526	0.310199	-0.217819	-0.064606	0.221222	-0.269760	-0.071412	0.147534	-0.010848	-0.104593	0.209997	0.006959	-0.061240	
711	7.1100	0.024492	0.102616	0.158977	0.012655	-0.112739	0.235941	0.007362	-0.002818	0.001965	0.004076	-0.144283	-0.063544	0.225666	-0.010677	0.148196	0.172476	0.034170	0.081535	0.104877	0.018374	0.207932	0.097347	-0.096970	0.240702	0.032534	0.004420	0.007277	0.234041	0.005015	0.106586	0.310052	-0.217948	-0.064499	0.221044	-0.269710	-0.071405	0.148051	-0.010563	-0.104866	0.210197	0.007000	-0.061156	
712	7.1200	0.024472	0.102607	0.159025	0.012631	-0.112764	0.235954	0.007341	-0.002853	0.002053	0.004095	-0.144281	-0.063501	0.225693	-0.010649	0.148239	0.172497	0.034209	0.081594	0.104918	0.018343	0.207960	0.097373	-0.096995	0.240681	0.032542	0.004404	0.007299	0.234040	0.005044	0.106648	0.309920	-0.218050	-0.064422	0.220866	-0.269621	-0.071478	0.148609	-0.010210	-0.105218	0.210466	0.007108	-0.061161	
713	7.1300	0.024449	0.102603	0.159074	0.012614	-0.112788	0.235967	0.007318	-0.002886	0.002137	0.004125	-0.144280	-0.063459	0.225722	-0.010629	0.148295	0.172519	0.034251	0.081657	0.104976	0.018316	0.207982	0.097397	-0.097010	0.240640	0.032542	0.004398	0.007321	0.234046	0.005075	0.106718	0.309798	-0.218117	-0.064377	0.220687	-0.269498	-0.071617	0.149138	-0.009816	-0.105585	0.210808	0.007282	-0.061252	
714	7.1400	0.024427	0.102602	0.159127	0.012601	-0.112810	0.235981	0.007297	-0.002915	0.002214	0.004160	-0.144278	-0.063419	0.225741	-0.010620	0.148362	0.172548	0.034295	0.081725	0.105016	0.018292	0.208007	0.097411	-0.097018	0.240619	0.032552	0.004398	0.007367	0.234072	0.005115	0.106796	0.309685	-0.218143	-0.064367	0.220506	-0.269343	-0.071806	0.149605	-0.009406	-0.105935	0.211197	0.007513	-0.061428	
715	7.1500	0.024413	0.102597	0.159182	0.012589	-0.112831	0.235995	0.007281	-0.002937	0.002283	0.004195	-0.144276	-0.063379	0.225745	-0.010624	0.148436	0.172582	0.034332	0.081793	0.105025	0.018262	0.208041	0.097429	-0.097029	0.240601	0.032583	0.004399	0.007449	0.234124	0.005165	0.106875	0.309580	-0.218134	-0.064397	0.220321	-0.269160	-0.072031	0.149995	-0.009008	-0.106258	0.211586	0.007778	-0.061686	
716	7.1600	0.024412	0.102587	0.159240	0.012575	-0.112851	0.236010	0.007273	-0.002955	0.002345	0.004226	-0.144272	-0.063342	0.225738	-0.010643	0.148510	0.172619	0.034361	0.081859	0.105016	0.018222	0.208086	0.097467	-0.097055	0.240569	0.032627	0.004396	0.007550	0.234198	0.005222	0.106947	0.309484	-0.218099	-0.064471	0.220134	-0.268957	-0.072283	0.150299	-0.008651	-0.106558	0.211935	0.008052	-0.062021	
717	7.1700	0.024423	0.102572	0.159299	0.012558	-0.112871	0.236027	0.007276	-0.002968	0.002401	0.004254	-0.144266	-0.063308	0.225727	-0.010676	0.148577	0.172652	0.034378	0.081926	0.105008	0.018171	0.208139	0.097511	-0.097095	0.240526	0.032664	0.004395	0.007635	0.234277	0.005271	0.107011	0.309397	-0.218050	-0.064584	0.219947	-0.268739	-0.072554	0.150533	-0.008347	-0.106870	0.212219	0.008318	-0.062426	
718	7.1800	0.024439	0.102554	0.159356	0.012536	-0.112890	0.236045	0.007289	-0.002978	0.002454	0.004277	-0.144259	-0.063276	0.225722	-0.010720	0.148638	0.172677	0.034381	0.081998	0.105011	0.018113	0.208199	0.097535	-0.097145	0.240473	0.032693	0.004398	0.007691	0.234340	0.005297	0.107076	0.309319	-0.217992	-0.064725	0.219768	-0.268513	-0.072842	0.150733	-0.008077	-0.107281	0.212429	0.008574	-0.062898	
719	7.1900	0.024460	0.102536	0.159410	0.012510	-0.112910	0.236064	0.007314	-0.002987	0.002505	0.004298	-0.144252	-0.063246	0.225728	-0.010770	0.148695	0.172694	0.034373	0.082074	0.105019	0.018055	0.208265	0.097537	-0.097196	0.240443	0.032725	0.004406	0.007737	0.234385	0.005303	0.107148	0.309249	-0.217926	-0.064876	0.219605	-0.268283	-0.073145	0.150951	-0.007795	-0.107901	0.212580	0.008834	-0.063449	
720	7.2000	0.024484	0.102522	0.159458	0.012478	-0.112930	0.236085	0.007350	-0.002994	0.002554	0.004319	-0.144246	-0.063217	0.225741	-0.010819	0.148745	0.172716	0.034373	0.082153	0.105030	0.018004	0.208332	0.097530	-0.097241	0.240486	0.032766	0.004418	0.007790	0.234422	0.005303	0.107226	0.309180	-0.217859	-0.065024	0.219463	-0.268054	-0.073468	0.151217	-0.007464	-0.108783	0.212720	0.009122	-0.064118	
721	7.2100	0.024510	0.102512	0.159499	0.012444	-0.112948	0.236108	0.007396	-0.002999	0.002600	0.004340	-0.144244	-0.063188	0.225753	-0.010859	0.148793	0.172771	0.034421	0.082229	0.105042	0.017960	0.208394	0.097526	-0.097277	0.240592	0.032811	0.004426	0.007839	0.234457	0.005302	0.107297	0.309110	-0.217798	-0.065161	0.219342	-0.267832	-0.073820	0.151521	-0.007105	-0.109897	0.212915	0.009456	-0.064964	
722	7.2200	0.024537	0.102500	0.159537	0.012409	-0.112966	0.236134	0.007450	-0.003001	0.002642	0.004361	-0.144245	-0.063156	0.225760	-0.010897	0.148838	0.172882	0.034546	0.082300	0.105056	0.017918	0.208443	0.097521	-0.097314	0.240687	0.032855	0.004423	0.007871	0.234498	0.005300	0.107354	0.309048	-0.217756	-0.065288	0.219236	-0.267623	-0.074205	0.151857	-0.006761	-0.111206	0.213193	0.009834	-0.066039	
723	7.2300	0.024564	0.102486	0.159577	0.012374	-0.112981	0.236164	0.007507	-0.003001	0.002680	0.004379	-0.144252	-0.063118	0.225765	-0.010947	0.148874	0.173014	0.034696	0.082361	0.105075	0.017873	0.208481	0.097510	-0.097359	0.240715	0.032896	0.004409	0.007917	0.234542	0.005289	0.107397	0.309004	-0.217748	-0.065404	0.219136	-0.267431	-0.074624	0.152249	-0.006464	-0.112723	0.213531	0.010229	-0.067371	
724	7.2400	0.024595	0.102471	0.159623	0.012340	-0.112993	0.236198	0.007561	-0.002998	0.002716	0.004393	-0.144262	-0.063072	0.225761	-0.011012	0.148895	0.173075	0.034749	0.082411	0.105098	0.017825	0.208522	0.097487	-0.097410	0.240684	0.032948	0.004381	0.008055	0.234570	0.005259	0.107427	0.308973	-0.217780	-0.065507	0.219029	-0.267266	-0.075068	0.152722	-0.006216	-0.114486	0.213880	0.010605	-0.068971	
725	7.2500	0.024623	0.102458	0.159675	0.012308	-0.113002	0.236238	0.007604	-0.002994	0.002752	0.004397	-0.144274	-0.063017	0.225720	-0.011092	0.148905	0.173030	0.034667	0.082457	0.105118	0.017782	0.208576	0.097459	-0.097457	0.240658	0.033030	0.004339	0.008338	0.234560	0.005200	0.107441	0.308942	-0.217852	-0.065588	0.218904	-0.267135	-0.075528	0.153285	-0.006006	-0.116534	0.214209	0.010938	-0.070850	
726	7.2600	0.024643	0.102447	0.159733	0.012278	-0.113008	0.236283	0.007631	-0.002986	0.002793	0.004390	-0.144284	-0.062954	0.225625	-0.011185	0.148914	0.172937	0.034529	0.082504	0.105138	0.017754	0.208641	0.097439	-0.097487	0.240703	0.033119	0.004288	0.008697	0.234494	0.005100	0.107445	0.308907	-0.217961	-0.065634	0.218756	-0.267043	-0.075990	0.153950	-0.005827	-0.118900	0.214529	0.011226	-0.073021	
727	7.2700	0.024651	0.102440	0.159797	0.012250	-0.113011	0.236334	0.007640	-0.002977	0.002844	0.004369	-0.144289	-0.062885	0.225503	-0.011281	0.148927	0.172855	0.034413	0.082553	0.105157	0.017749	0.208707	0.097429	-0.097499	0.240802	0.033163	0.004250	0.008977	0.234381	0.004959	0.107451	0.308863	-0.218106	-0.065632	0.218587	-0.266987	-0.076435	0.154730	-0.005686	-0.121608	0.214906	0.011483	-0.075505	
